M48
; DRILL file {KiCad 9.0.6} date 2026-01-06T17:14:19-0800
; FORMAT={-:-/ absolute / metric / decimal}
; #@! TF.CreationDate,2026-01-06T17:14:19-08:00
; #@! TF.GenerationSoftware,Kicad,Pcbnew,9.0.6
; #@! TF.FileFunction,Plated,1,2,PTH
FMAT,2
METRIC
; #@! TA.AperFunction,Plated,PTH,ViaDrill
T1C0.300
; #@! TA.AperFunction,Plated,PTH,ComponentDrill
T2C0.787
; #@! TA.AperFunction,Plated,PTH,ComponentDrill
T3C0.800
; #@! TA.AperFunction,Plated,PTH,ComponentDrill
T4C0.900
; #@! TA.AperFunction,Plated,PTH,ComponentDrill
T5C1.000
%
G90
G05
T1
X101.6Y-142.24
X101.6Y-162.56
X162.56Y-127.0
X170.18Y-60.96
X190.5Y-99.06
X213.36Y-25.4
X218.44Y-60.96
X223.52Y-66.04
X238.76Y-53.34
X246.38Y-53.34
X259.08Y-58.42
X261.62Y-99.06
T2
X241.3Y-63.5
X241.3Y-71.12
X243.84Y-63.5
X243.84Y-71.12
X246.38Y-63.5
X246.38Y-71.12
X248.92Y-63.5
X248.92Y-71.12
X251.46Y-63.5
X251.46Y-71.12
X254.0Y-63.5
X254.0Y-71.12
X256.54Y-63.5
X256.54Y-71.12
X259.08Y-63.5
X259.08Y-71.12
T3
X175.26Y-50.8
X177.8Y-40.64
X182.88Y-50.8
X185.42Y-40.64
X191.04Y-25.4
X193.04Y-25.4
X206.28Y-25.4
X208.28Y-25.4
X210.82Y-43.18
X210.82Y-45.72
X210.82Y-48.26
X210.82Y-50.8
X218.44Y-43.18
X218.44Y-45.72
X218.44Y-48.26
X218.44Y-50.8
T4
X48.26Y-116.84
X50.8Y-116.84
X53.34Y-147.32
X55.88Y-147.32
X97.46Y-150.0
X99.06Y-116.84
X100.0Y-150.0
X101.6Y-116.84
X147.46Y-150.5
X149.86Y-116.84
X150.0Y-150.5
X152.4Y-116.84
X180.38Y-27.98
X182.88Y-25.48
X182.88Y-30.48
X194.42Y-150.0
X195.58Y-116.84
X196.96Y-150.0
X198.12Y-116.84
X246.22Y-150.15
X246.38Y-116.84
X248.76Y-150.15
X248.92Y-116.84
T5
X101.6Y-30.48
X101.6Y-50.8
X101.6Y-71.12
M30
